<svg xmlns="http://www.w3.org/2000/svg" viewBox="0 0 294.64 87.32"><defs><style>.cls-1{fill:#fff;}.cls-2{fill:#0081c3;}</style></defs><title>Blue &amp;amp; Black</title><g id="White"><g id="Vectors-2" data-name="Vectors"><path class="cls-1" d="M78.94,16.78H98.11V23H85.34v3.58H95.83v5.79H85.34v3.2H98.11v6.18H78.94Z"/><path class="cls-1" d="M108.57,16.78h6.37V35.56h12v6.18H108.57Z"/><path class="cls-1" d="M136.6,16.78h19.17V23H143v3.58h10.5v5.79H143v3.2h12.77v6.18H136.6Z"/><path class="cls-1" d="M174.4,41.74l-10.08-25h7l6.27,16.77,6.31-16.77h7l-10.11,25Z"/><path class="cls-1" d="M210.2,16.78l10.08,25h-7l-1.38-3.65h-9.82l-1.38,3.65h-7l10.11-25ZM207,25l-2.76,7.33h5.48Z"/><path class="cls-1" d="M224.19,16.78h21.95V23h-7.78V41.74H232V23h-7.77Z"/><path class="cls-1" d="M255.8,16.78H275V23H262.2v3.58h10.5v5.79H262.2v3.2H275v6.18H255.8Z"/><path class="cls-1" d="M86,51.8l3.8-6.23H95l-6.8,10.87v6.3H83.8v-6.3L77,45.57h5.17Z"/><path class="cls-1" d="M108.11,45.24A8.92,8.92,0,1,1,99,54.16,9,9,0,0,1,108.11,45.24Zm0,13.58a4.67,4.67,0,0,0,0-9.33,4.67,4.67,0,1,0,0,9.33Z"/><path class="cls-1" d="M139.83,45.57v9.66c0,4.43-2.77,7.84-7.9,7.84s-7.87-3.41-7.87-7.84V45.57h4.4V55c0,2.49,1.19,3.85,3.47,3.85s3.52-1.36,3.52-3.85v-9.4Z"/><path class="cls-1" d="M155.87,45.57c4.4,0,6.42,2.86,6.42,6.28a6,6,0,0,1-3.38,5.69l3.71,5.2h-5.26l-3.25-4.6h-2.25v4.6h-4.37V45.57Zm-4,4v4.58h3.77a2.15,2.15,0,0,0,2.42-2.27,2.12,2.12,0,0,0-2.42-2.31Z"/><path class="cls-1" d="M181,45.57h7.57c4.55,0,6.73,3.13,6.73,6.58,0,3.63-2.18,6.69-6.73,6.69h-3.17v3.9H181Zm4.4,4v5.26h2.92c1.85,0,2.53-1.15,2.53-2.66a2.35,2.35,0,0,0-2.53-2.6Z"/><path class="cls-1" d="M206.69,45.57V62.74h-4.4V45.57Z"/><path class="cls-1" d="M213.53,45.57h15.09v4.27h-5.34v12.9h-4.41V49.84h-5.34Z"/><path class="cls-1" d="M251.55,58.14a8.93,8.93,0,1,1,0-8l-4,1.8a4.67,4.67,0,1,0,0,4.45Z"/><path class="cls-1" d="M274.12,45.57V62.74h-4.4V56.36h-7v6.38h-4.38V45.57h4.38v6.67h7V45.57Z"/></g></g><g id="Blue_Black" data-name="Blue &amp; Black"><g id="Vector"><path d="M77.8,68.51h3.62v.41h-3.2v2.36H81v.39H78.22V74H77.8Z"/><path d="M85.11,68.51V74h-.42V68.51Z"/><path d="M88.76,74V68.51h.37l3.78,4.76V68.51h.42V74H93l-3.78-4.75V74Z"/><path d="M97,68.51h2.13a2.74,2.74,0,0,1,0,5.46H97Zm.41.41v4.65h1.7a2.33,2.33,0,0,0,0-4.65Z"/><path d="M105.37,68.51V74H105V68.51Z"/><path d="M109,74V68.51h.38l3.78,4.76V68.51h.41V74h-.37l-3.78-4.75V74Z"/><path d="M119.77,71.16h2.38V74h-.37V73a2.51,2.51,0,0,1-2.08,1A2.84,2.84,0,1,1,122,69.56l-.35.24a2.42,2.42,0,1,0,.12,2.7v-1h-2Z"/><path d="M131.44,71.54l2-3h.48L131.65,72v2h-.41V72L129,68.51h.48Z"/><path d="M138.85,68.4A2.84,2.84,0,1,1,136,71.24,2.84,2.84,0,0,1,138.85,68.4Zm0,5.26a2.42,2.42,0,1,0-2.43-2.42A2.42,2.42,0,0,0,138.85,73.66Z"/><path d="M149.46,68.51v3.4a2.29,2.29,0,0,1-4.58,0v-3.4h.41v3.38a1.88,1.88,0,0,0,3.76,0V68.51Z"/><path d="M155.45,68.51a1.73,1.73,0,0,1,1.86,1.76A1.71,1.71,0,0,1,156.07,72l1.43,2H157L155.62,72h-2.17V74H153V68.51Zm-2,.39v2.75h2a1.38,1.38,0,1,0,0-2.75Z"/><path d="M165.21,68.51h2.11a1.88,1.88,0,1,1,0,3.76h-1.7V74h-.41Zm.41.39v3h1.68a1.5,1.5,0,0,0,1.6-1.49,1.48,1.48,0,0,0-1.6-1.49Z"/><path d="M172.49,68.51h3.76v.41h-3.34v2.17h2.84v.4h-2.84v2.08h3.34V74h-3.76Z"/><path d="M182,68.51a1.73,1.73,0,0,1,1.86,1.76A1.72,1.72,0,0,1,182.58,72L184,74h-.51L182.14,72H180V74h-.41V68.51Zm-2,.39v2.75h2a1.38,1.38,0,1,0,0-2.75Z"/><path d="M187.21,68.51h3.61v.41h-3.2v2.36h2.78v.39h-2.78V74h-.41Z"/><path d="M194.1,68.51h3.75v.41h-3.34v2.17h2.84v.4h-2.84v2.08h3.34V74H194.1Z"/><path d="M205.92,72.65a2.85,2.85,0,1,1,0-2.82l-.38.18a2.41,2.41,0,1,0,0,2.46Z"/><path d="M208.37,68.51h4.36v.41h-2v5h-.41v-5h-2Z"/><path d="M220.5,68.51V74h-.41V68.51Z"/><path d="M224.16,74V68.51h.37l3.78,4.76V68.51h.41V74h-.37l-3.78-4.75V74Z"/><path d="M234.2,74l-2.51-5.46h.46l2.27,5,2.28-5h.45L234.64,74Z"/><path d="M240.12,68.51h3.76v.41h-3.34v2.17h2.84v.4h-2.84v2.08h3.34V74h-3.76Z"/><path d="M247.08,72.61v0c0,.6.66,1,1.72,1s1.56-.42,1.56-1-.77-1-1.7-1.25-1.94-.61-1.94-1.6.75-1.43,1.94-1.43,2,.6,2,1.42v.06h-.4v0c0-.61-.63-1.06-1.64-1.06s-1.51.43-1.51,1,.74.94,1.63,1.22,2,.6,2,1.63c0,.86-.79,1.42-2,1.42s-2.13-.59-2.13-1.42v0Z"/><path d="M253.41,68.51h4.36v.41h-2v5h-.41v-5h-2Z"/><path d="M262.86,68.4A2.84,2.84,0,1,1,260,71.24,2.84,2.84,0,0,1,262.86,68.4Zm0,5.26a2.42,2.42,0,1,0-2.43-2.42A2.42,2.42,0,0,0,262.86,73.66Z"/><path d="M271.38,68.51A1.77,1.77,0,0,1,272,72l1.43,2h-.5L271.55,72h-2.17V74H269V68.51Zm-2,.39v2.75h2a1.38,1.38,0,1,0,0-2.75Z"/><path d="M78.94,16.78H98.11V23H85.34v3.58H95.83v5.79H85.34v3.2H98.11v6.18H78.94Z"/><path d="M108.57,16.78h6.37V35.56h12v6.18H108.57Z"/><path d="M136.6,16.78h19.17V23H143v3.58h10.5v5.79H143v3.2h12.77v6.18H136.6Z"/><path d="M174.4,41.74l-10.08-25h7l6.27,16.77,6.31-16.77h7l-10.11,25Z"/><path d="M210.2,16.78l10.08,25h-7l-1.38-3.65h-9.82l-1.38,3.65h-7l10.11-25ZM207,25l-2.76,7.33h5.48Z"/><path d="M224.19,16.78h21.95V23h-7.78V41.74H232V23h-7.77Z"/><path d="M255.8,16.78H275V23H262.2v3.58h10.5v5.79H262.2v3.2H275v6.18H255.8Z"/><path d="M86,51.8l3.8-6.23H95l-6.8,10.87v6.3H83.8v-6.3L77,45.57h5.17Z"/><path d="M108.11,45.24A8.92,8.92,0,1,1,99,54.16,9,9,0,0,1,108.11,45.24Zm0,13.58a4.67,4.67,0,0,0,0-9.33,4.67,4.67,0,1,0,0,9.33Z"/><path d="M139.83,45.57v9.66c0,4.43-2.77,7.84-7.9,7.84s-7.87-3.41-7.87-7.84V45.57h4.4V55c0,2.49,1.19,3.85,3.47,3.85s3.52-1.36,3.52-3.85v-9.4Z"/><path d="M155.87,45.57c4.4,0,6.42,2.86,6.42,6.28a6,6,0,0,1-3.38,5.69l3.71,5.2h-5.26l-3.25-4.6h-2.25v4.6h-4.37V45.57Zm-4,4v4.58h3.77a2.15,2.15,0,0,0,2.42-2.27,2.12,2.12,0,0,0-2.42-2.31Z"/><path d="M181,45.57h7.57c4.55,0,6.73,3.13,6.73,6.58,0,3.63-2.18,6.69-6.73,6.69h-3.17v3.9H181Zm4.4,4v5.26h2.92c1.85,0,2.53-1.15,2.53-2.66a2.35,2.35,0,0,0-2.53-2.6Z"/><path d="M206.69,45.57V62.74h-4.4V45.57Z"/><path d="M213.53,45.57h15.09v4.27h-5.34v12.9h-4.41V49.84h-5.34Z"/><path d="M251.55,58.14a8.93,8.93,0,1,1,0-8l-4,1.8a4.67,4.67,0,1,0,0,4.45Z"/><path d="M274.12,45.57V62.74h-4.4V56.36h-7v6.38h-4.38V45.57h4.38v6.67h7V45.57Z"/><path class="cls-2" d="M21.25,13.28H68.57V28.61H37.05v8.84H63v14.3H37.05v7.9H68.57V74.9H21.25Z"/></g></g></svg>