<svg xmlns="http://www.w3.org/2000/svg" xmlns:xlink="http://www.w3.org/1999/xlink" viewBox="0 0 1287.87 1468.29"><defs><style>.cls-1{fill:#c8ede6;opacity:0.59;}.cls-2{fill:url(#linear-gradient);}.cls-3{fill:#fff;}.cls-4{fill:#006837;}.cls-5{fill:#d4145a;}.cls-6{fill:#f7931e;}.cls-7{fill:#0071bc;}.cls-8{fill:#662d91;}.cls-9{fill:#22b573;}.cls-10{fill:#ed1c24;}</style><linearGradient id="linear-gradient" y1="679.67" x2="1287.87" y2="679.67" gradientUnits="userSpaceOnUse"><stop offset="0" stop-color="#0081c3"/><stop offset="1" stop-color="#00ab92"/></linearGradient></defs><title>video-jewel</title><g id="Layer_2" data-name="Layer 2"><g id="Layer_1-2" data-name="Layer 1"><path class="cls-1" d="M1279.37,618.91c-5.94,107-67.38,169.27-67.38,169.27s-5.07,7.21-14.52,20.15c-7.41,10.15-17.53,23.82-30,40.31-29.54,39-72.35,93.74-124.08,154.69q-13.36,15.75-27.5,32-19.17,22.05-39.64,44.71c-233.3,258.14-581,554.08-762.5,276.56-36.48-55.81-66.25-134.82-87-242q-7.87-40.66-14.28-79.28-2.52-15.15-4.82-30-12.7-81.9-19.14-154.69-1.86-20.5-3.25-40.31c-5.71-80.79-5.91-153.06-1.85-217.69q.4-6.6.88-13.1,1-13.85,2.27-27.21c8.19-86.52,24.31-158.27,44.92-217.69q6.19-17.89,12.91-34.31C230.28,89.6,372.6,55.05,372.6,55.05A543.74,543.74,0,0,1,444,39.48c237.14-35.63,481.25,75.78,481.25,75.78,86.55,60.36,153.27,118.07,204.21,172.51q5.91,6.32,11.53,12.56,14.71,16.37,27.58,32.31c65.88,81.61,96.45,154.94,106.87,217.69a320,320,0,0,1,4.14,40.31C1280,600.38,1279.87,609.81,1279.37,618.91Z"/><path class="cls-2" d="M1272.7,808.33a297.14,297.14,0,0,1-15.92,40.31c-42.46,88.2-113.45,122.69-113.45,122.69s-17,12.09-46.83,32c-13.71,9.16-30.14,20-48.88,32-21.07,13.54-45,28.64-71.39,44.71-201.86,123.22-541.75,303.74-762.5,276.56C79.47,1340.07-10.72,1246.71,1,1016.89q2.35-46,10.3-99.56,3.86-25.77,8-50.59,1.34-8.1,2.73-16.1,3.53-20.49,7.24-40.31c15-80.23,32.24-152.53,51.12-217.69q1.92-6.6,3.85-13.1,4.11-13.83,8.32-27.21c26.7-84.92,56.28-156.83,87.34-217.69q9.06-17.77,18.29-34.31C280.21,153.2,370.31,77.88,444,39.48,531.79-6.26,596.33.33,596.33.33c267,15,501,241,501,241q17,23.68,32.16,46.44,4.23,6.32,8.31,12.56,10.73,16.4,20.55,32.31c50.45,81.69,83.51,154,103.58,217.69q6.54,20.76,11.29,40.31,3.54,14.46,6.15,28.27C1294.11,696.35,1288.26,758.79,1272.7,808.33Z"/><path class="cls-3" d="M1272.7,808.33a297.14,297.14,0,0,1-15.92,40.31c-42.46,88.2-113.45,122.69-113.45,122.69s-17,12.09-46.83,32c-13.71,9.16-30.14,20-48.88,32H39.33A48.91,48.91,0,0,1,1,1016.89q2.35-46,10.3-99.56,3.86-25.77,8-50.59,1.34-8.1,2.73-16.1,3.53-20.49,7.24-40.31c15-80.23,32.24-152.53,51.12-217.69q1.92-6.6,3.85-13.1,4.11-13.83,8.32-27.21c26.7-84.92,56.28-156.83,87.34-217.69q9.06-17.77,18.29-34.31H1137.8q10.73,16.4,20.55,32.31c50.45,81.69,83.51,154,103.58,217.69q6.54,20.76,11.29,40.31,3.54,14.46,6.15,28.27C1294.11,696.35,1288.26,758.79,1272.7,808.33Z"/><path class="cls-4" d="M406.33,334.64V552.33H92.59c26.7-84.92,56.28-156.83,87.34-217.69Z"/><path class="cls-5" d="M406.33,592.64V810.33H29.3c15-80.23,32.24-152.53,51.12-217.69Z"/><path class="cls-6" d="M406.33,850.64v154.69h-387V866.74q1.34-8.1,2.73-16.1Z"/><rect class="cls-7" x="465.33" y="334.64" width="387" height="217.69"/><rect class="cls-8" x="465.33" y="592.64" width="387" height="217.69"/><rect class="cls-9" x="465.33" y="850.64" width="387" height="154.69"/><path class="cls-6" d="M1261.93,550.33H908.33V332.64h250C1208.8,414.33,1241.86,486.61,1261.93,550.33Z"/><path class="cls-10" d="M1272.7,808.33H908.33V590.64h364.89q3.54,14.46,6.15,28.27C1294.11,696.35,1288.26,758.79,1272.7,808.33Z"/><path class="cls-7" d="M1256.78,848.64c-42.46,88.2-113.45,122.69-113.45,122.69s-17,12.09-46.83,32H908.33V848.64Z"/><path class="cls-3" d="M256.07,690l-67.33-38.86A6.71,6.71,0,0,0,178.67,657V734.7a6.71,6.71,0,0,0,10.07,5.81l67.33-38.86A6.73,6.73,0,0,0,256.07,690Z"/><path class="cls-3" d="M256.07,436l-67.33-38.86A6.71,6.71,0,0,0,178.67,403V480.7a6.71,6.71,0,0,0,10.07,5.81l67.33-38.86A6.73,6.73,0,0,0,256.07,436Z"/><path class="cls-3" d="M256.07,948l-67.33-38.86A6.71,6.71,0,0,0,178.67,915V992.7a6.71,6.71,0,0,0,10.07,5.81l67.33-38.86A6.73,6.73,0,0,0,256.07,948Z"/><path class="cls-3" d="M704.07,690l-67.33-38.86A6.71,6.71,0,0,0,626.67,657V734.7a6.71,6.71,0,0,0,10.07,5.81l67.33-38.86A6.73,6.73,0,0,0,704.07,690Z"/><path class="cls-3" d="M704.07,436l-67.33-38.86A6.71,6.71,0,0,0,626.67,403V480.7a6.71,6.71,0,0,0,10.07,5.81l67.33-38.86A6.73,6.73,0,0,0,704.07,436Z"/><path class="cls-3" d="M704.07,948l-67.33-38.86A6.71,6.71,0,0,0,626.67,915V992.7a6.71,6.71,0,0,0,10.07,5.81l67.33-38.86A6.73,6.73,0,0,0,704.07,948Z"/><path class="cls-3" d="M1144.07,690l-67.33-38.86a6.71,6.71,0,0,0-10.07,5.81V734.7a6.71,6.71,0,0,0,10.07,5.81l67.33-38.86A6.73,6.73,0,0,0,1144.07,690Z"/><path class="cls-3" d="M1144.07,436l-67.33-38.86a6.71,6.71,0,0,0-10.07,5.81V480.7a6.71,6.71,0,0,0,10.07,5.81l67.33-38.86A6.73,6.73,0,0,0,1144.07,436Z"/><path class="cls-3" d="M1144.07,948l-67.33-38.86a6.71,6.71,0,0,0-10.07,5.81V992.7a6.71,6.71,0,0,0,10.07,5.81l67.33-38.86A6.73,6.73,0,0,0,1144.07,948Z"/></g></g></svg>