<svg xmlns="http://www.w3.org/2000/svg" xmlns:xlink="http://www.w3.org/1999/xlink" viewBox="0 0 456.1 84.26"><defs><style>.cls-1{fill:#fff;}.cls-2{fill:url(#linear-gradient);}</style><linearGradient id="linear-gradient" y1="42.13" x2="84.26" y2="42.13" gradientUnits="userSpaceOnUse"><stop offset="0" stop-color="#0b85c8"/><stop offset="1" stop-color="#00ab84"/></linearGradient></defs><title>Icon Text White</title><g id="Layer_2" data-name="Layer 2"><g id="White"><g id="Vectors"><path class="cls-1" d="M99.64.08h34.85V11.37H111.28v6.52h19.08V28.42H111.28v5.82h23.21V45.47H99.64Z"/><path class="cls-1" d="M153.52.08H165.1V34.24h21.76V45.47H153.52Z"/><path class="cls-1" d="M204.5.08h34.85V11.37H216.13v6.52h19.09V28.42H216.13v5.82h23.22V45.47H204.5Z"/><path class="cls-1" d="M273.22,45.47,254.89.08h12.68L279,30.57,290.44.08h12.69L284.74,45.47Z"/><path class="cls-1" d="M338.33.08l18.33,45.39H344l-2.51-6.63H323.61l-2.5,6.63H308.42L326.81.08ZM332.57,15l-5,13.32h9.95Z"/><path class="cls-1" d="M363.76.08h39.91V11.37H389.54v34.1H377.9V11.37H363.76Z"/><path class="cls-1" d="M421.25.08H456.1V11.37H432.89v6.52H452V28.42H432.89v5.82H456.1V45.47H421.25Z"/><path class="cls-1" d="M112.43,63.77l6.93-11.32h9.44L116.43,72.21V83.66h-8V72.21L96.15,52.45h9.4Z"/><path class="cls-1" d="M152.68,51.85a16.21,16.21,0,1,1-16.57,16.2A16.42,16.42,0,0,1,152.68,51.85Zm0,24.68a8.48,8.48,0,1,0-8.48-8.48A8.38,8.38,0,0,0,152.68,76.53Z"/><path class="cls-1" d="M210.37,52.45V70c0,8-5,14.25-14.37,14.25S181.68,78.05,181.68,70V52.45h8V69.53c0,4.52,2.16,7,6.32,7s6.41-2.48,6.41-7V52.45Z"/><path class="cls-1" d="M239.53,52.45c8,0,11.68,5.2,11.68,11.4,0,4.36-2,8.44-6.16,10.36l6.76,9.45h-9.56l-5.92-8.37h-4.08v8.37h-8V52.45Zm-7.28,7.28v8.32h6.84c3.2,0,4.4-2,4.4-4.12,0-2.4-1.2-4.2-4.4-4.2Z"/><path class="cls-1" d="M285.29,52.45h13.77c8.28,0,12.24,5.68,12.24,12,0,6.6-4,12.16-12.24,12.16h-5.77v7.09h-8Zm8,7.28v9.56h5.33c3.36,0,4.6-2.08,4.6-4.84,0-2.48-1.24-4.72-4.6-4.72Z"/><path class="cls-1" d="M331.94,52.45V83.66h-8V52.45Z"/><path class="cls-1" d="M344.38,52.45h27.45v7.76H362.1V83.66h-8V60.21h-9.72Z"/><path class="cls-1" d="M413.51,75.29a16.62,16.62,0,0,1-31.37-7.24,16.5,16.5,0,0,1,16.57-16.2,16.68,16.68,0,0,1,14.76,8.88L406.19,64a8.48,8.48,0,1,0,0,8.08Z"/><path class="cls-1" d="M454.56,52.45V83.66h-8V72.05H433.83V83.66h-8V52.45h8V64.57h12.73V52.45Z"/></g></g><g id="White_on_Gradient" data-name="White on Gradient"><g id="Vectors-2" data-name="Vectors"><rect class="cls-2" width="84.26" height="84.26"/><path class="cls-1" d="M15.89,9H66.76V25.48H32.88V35H60.73V50.36H32.88v8.5H66.76V75.24H15.89Z"/></g></g></g></svg>