<svg xmlns="http://www.w3.org/2000/svg" xmlns:xlink="http://www.w3.org/1999/xlink" viewBox="0 0 449.5 84.26"><defs><style>.cls-1{fill:url(#linear-gradient);}.cls-2{fill:#fff;}</style><linearGradient id="linear-gradient" y1="42.13" x2="84.26" y2="42.13" gradientUnits="userSpaceOnUse"><stop offset="0" stop-color="#0b85c8"/><stop offset="1" stop-color="#00ab84"/></linearGradient></defs><title>Icon Text Black</title><g id="Layer_2" data-name="Layer 2"><g id="Black"><g id="Vectors"><path d="M97.7,0h34.4V11.14H109.18v6.43H128V28H109.18v5.74H132.1V44.79H97.7Z"/><path d="M150.88,0H162.3V33.71h21.48V44.79h-32.9Z"/><path d="M201.19,0h34.39V11.14H212.67v6.43h18.84V28H212.67v5.74h22.91V44.79H201.19Z"/><path d="M269,44.79,250.92,0h12.52l11.25,30.09L286,0h12.51L280.38,44.79Z"/><path d="M333.27,0l18.09,44.79H338.84l-2.47-6.55H318.74l-2.47,6.55H303.75L321.9,0Zm-5.68,14.7-4.94,13.15h9.82Z"/><path d="M358.37,0h39.39V11.14H383.81V44.79H372.32V11.14H358.37Z"/><path d="M415.11,0H449.5V11.14H426.59v6.43h18.84V28H426.59v5.74H449.5V44.79H415.11Z"/><path d="M110.32,62.85l6.84-11.17h9.32l-12.21,19.5v11.3h-7.85V71.18L94.25,51.68h9.28Z"/><path d="M150,51.09a16,16,0,1,1-16.34,16A16.2,16.2,0,0,1,150,51.09Zm0,24.36a8.37,8.37,0,1,0-8.37-8.37A8.28,8.28,0,0,0,150,75.45Z"/><path d="M207,51.68V69c0,7.94-5,14.06-14.18,14.06S178.67,77,178.67,69V51.68h7.89V68.54c0,4.46,2.14,6.91,6.24,6.91s6.32-2.45,6.32-6.91V51.68Z"/><path d="M235.76,51.68c7.9,0,11.53,5.13,11.53,11.25,0,4.31-1.94,8.33-6.08,10.23l6.67,9.32h-9.44l-5.84-8.25h-4v8.25h-7.86V51.68Zm-7.19,7.18v8.22h6.75c3.16,0,4.35-1.94,4.35-4.07,0-2.37-1.19-4.15-4.35-4.15Z"/><path d="M280.92,51.68h13.59c8.17,0,12.08,5.61,12.08,11.8,0,6.52-3.91,12-12.08,12h-5.69v7h-7.9Zm7.9,7.18V68.3h5.25c3.32,0,4.55-2,4.55-4.78,0-2.44-1.23-4.66-4.55-4.66Z"/><path d="M327,51.68v30.8h-7.9V51.68Z"/><path d="M339.24,51.68h27.09v7.66h-9.6V82.48h-7.9V59.34h-9.59Z"/><path d="M407.47,74.23a16.41,16.41,0,0,1-31-7.15,16.28,16.28,0,0,1,16.35-16,16.47,16.47,0,0,1,14.57,8.76l-7.19,3.24a8.37,8.37,0,1,0,0,8Z"/><path d="M448,51.68v30.8h-7.9V71H427.52V82.48h-7.86V51.68h7.86v12h12.56v-12Z"/></g></g><g id="White_on_Gradient" data-name="White on Gradient"><g id="Vectors-2" data-name="Vectors"><rect class="cls-1" width="84.26" height="84.26"/><path class="cls-2" d="M15.89,9H66.76V25.48H32.88V35H60.73V50.36H32.88v8.5H66.76V75.24H15.89Z"/></g></g></g></svg>