<svg id="Layer_1" data-name="Layer 1" xmlns="http://www.w3.org/2000/svg" viewBox="0 0 571 119"><defs><style>.cls-1{fill:#fff;}</style></defs><title>Longhand Whitescale</title><path class="cls-1" d="M339.74,112.12v-75h16.33l.56,5.57c3.08-3.86,8.05-6.67,16.05-6.67,14.95,0,24.72,11.8,24.72,27.69s-9.77,27.48-24.72,27.48c-6.56,0-12.41-2-15.56-5v26ZM356.9,63.56c0,7.07,4.8,12,11.31,12s11.7-5,11.7-12c0-7.33-5-12-11.7-12C361.7,51.54,356.9,56.45,356.9,63.56Z"/><path class="cls-1" d="M423,90.05H405.62V12.36H423Z"/><path class="cls-1" d="M474.73,27.53s-3,.46-11.77,5.31c-4.82,2.65-11.39,6.61-20.2,12.53l-10,6.32S429,55,429,59.5s3.72,7.81,3.72,7.81l6.65,4.19,3.39,2.13c20.72,13.92,29.09,17,31.32,17.68a5.81,5.81,0,0,0,.65.16c10.41,0,12.27-9.66,12.27-9.66V37.19S485.14,27.53,474.73,27.53Z"/><path class="cls-1" d="M495,37.08h19.37l11.2,35.42,10.92-35.42h19.43L531.31,97.83c-4.25,10.54-12.74,15.39-22.51,15.39a26,26,0,0,1-11.42-2.76l2.37-13.68a15.24,15.24,0,0,0,6.18,1.43c4.75,0,8.77-2.7,10.32-8.11Z"/><path class="cls-1" d="M254,35c16.39,0,28.47,11.8,28.47,27.58S270.39,90.15,254,90.15s-28.47-11.81-28.47-27.59S237.62,35,254,35Zm0,15.39c-6.62,0-11.25,5-11.25,12.19s4.63,12.2,11.25,12.2,11.26-5,11.26-12.2S260.62,50.37,254,50.37Z"/><path class="cls-1" d="M204.48,44.31l.55-7.23h16.39v53H204V64.56c0-9.88-5.57-13.47-12.14-13.47a20.28,20.28,0,0,0-6.67,1.16l-1-15.17a20.76,20.76,0,0,1,6.45-1.1C196.76,36,202,39.07,204.48,44.31Z"/><path class="cls-1" d="M319.3,36a20.82,20.82,0,0,1,6.46,1.1l-1.05,15.17A20.34,20.34,0,0,0,318,51.09c-6.56,0-12.14,3.59-12.14,13.47V90.05H288.51v-53H304.9l.55,7.23C307.94,39.07,313.18,36,319.3,36Z"/><path class="cls-1" d="M84.59,60.58c0-5.9-4.3-8.71-8.66-8.71S67,54.68,67,60.58V90.05H49.61V60.58A8.36,8.36,0,0,0,41,51.87c-4.36,0-8.83,2.81-8.83,8.71V90.05H14.74v-53h16l.55,5.57C35,37.91,41.39,36,47.63,36c7.06,0,13.85,3,16.66,8.82A21.51,21.51,0,0,1,82.11,36C92.32,36,102,42.71,102,55.62V90.05H84.59Z"/><path class="cls-1" d="M111.19,20.8c0-5.63,3.86-9.54,9.49-9.54s9.6,3.86,9.6,9.54-4,9.49-9.6,9.49A9.07,9.07,0,0,1,111.19,20.8Zm18.26,69.25H112.07v-53h17.38Z"/><path class="cls-1" d="M170.72,36a20.82,20.82,0,0,1,6.46,1.1l-1.05,15.17a20.32,20.32,0,0,0-6.67-1.16c-6.57,0-12.14,3.59-12.14,13.47V90.05H139.94v-53h16.38l.56,7.23C159.36,39.07,164.6,36,170.72,36Z"/></svg>