<svg xmlns="http://www.w3.org/2000/svg" viewBox="0 0 700 300"><defs><style>.cls-1{fill:#333;}.cls-2{fill:#f2f2f2;}</style></defs><title>Placeholder</title><g id="Layer_2" data-name="Layer 2"><g id="Layer_1-2" data-name="Layer 1"><rect class="cls-1" width="700" height="300"/><path class="cls-2" d="M17.66,126h21c12.62,0,18.66,8.66,18.66,18.24,0,10.06-6,18.54-18.66,18.54H29.86v10.8H17.66Zm12.2,11.1v14.58H38c5.13,0,7-3.17,7-7.38,0-3.78-1.89-7.2-7-7.2Z"/><path class="cls-2" d="M76,126H88.18v35.81H111v11.77H76Z"/><path class="cls-2" d="M157.17,126l19.21,47.58H163.09l-2.63-7H141.73l-2.62,7h-13.3L145.09,126Zm-6,15.61-5.25,14h10.43Z"/><path class="cls-2" d="M236.59,160.83A25.35,25.35,0,0,1,214,174.5c-13.73,0-25.26-11.11-25.26-24.71s11.53-24.71,25.26-24.71a25.44,25.44,0,0,1,22.51,13.54l-11.1,5a12.93,12.93,0,1,0,0,12.32Z"/><path class="cls-2" d="M254.89,126h36.54v11.83H267.09v6.83h20v11.05h-20v6.1h24.34v11.77H254.89Z"/><path class="cls-2" d="M355.11,126v47.58h-12.2V155.89h-19.4v17.69H311.37V126h12.14v18.48h19.4V126Z"/><path class="cls-2" d="M399.46,125.08c13.91,0,25.25,11.1,25.25,24.71s-11.34,24.71-25.25,24.71c-13.73,0-25.26-11.11-25.26-24.71S385.73,125.08,399.46,125.08Zm0,37.64a12.93,12.93,0,1,0-12.93-12.93A12.78,12.78,0,0,0,399.46,162.72Z"/><path class="cls-2" d="M443.8,126h12.14v35.81h22.82v11.77h-35Z"/><path class="cls-2" d="M497.24,126h22.08c14.89,0,22.51,10.86,22.51,23.79s-7.62,23.79-22.51,23.79H497.24Zm12.2,11.83v24h9c7.26,0,11.1-4.88,11.1-12s-3.84-12-11.1-12Z"/><path class="cls-2" d="M561.17,126h36.54v11.83H573.37v6.83h20v11.05h-20v6.1h24.34v11.77H561.17Z"/><path class="cls-2" d="M640.89,126c12.2,0,17.82,7.93,17.82,17.38,0,6.65-3,12.87-9.4,15.8l10.31,14.4H645l-9-12.75h-6.22v12.75H617.65V126Zm-11.1,11.1v12.69h10.43c4.88,0,6.71-3,6.71-6.29,0-3.66-1.83-6.4-6.71-6.4Z"/></g></g></svg>